<svg width="23" height="23" viewBox="0 0 23 23" fill="none" xmlns="http://www.w3.org/2000/svg">
<path d="M9.15768 1.33691V7.70358H1.49158L4.81973 1.33691H9.15768Z" stroke="white"/>
<path d="M15.3809 1.33691L18.6915 7.70358H11.0234V1.33691H15.3809ZM15.3622 1.30101L15.3623 1.3011L15.3622 1.30101Z" stroke="white"/>
<path d="M10.0319 20.487H1.16602V9.57031H13.4143C10.7242 10.6888 8.83268 13.342 8.83268 16.437C8.83268 17.9305 9.27357 19.3218 10.0319 20.487Z" stroke="white"/>
<path fill-rule="evenodd" clip-rule="evenodd" d="M16.2659 10.3701C17.4615 10.3701 18.5764 10.716 19.5159 11.3132C21.2091 12.3895 22.3326 14.2819 22.3326 16.4368C22.3326 19.7873 19.6164 22.5035 16.2659 22.5035C14.7273 22.5035 13.3225 21.9308 12.253 20.9868C10.9936 19.8752 10.1992 18.2487 10.1992 16.4368C10.1992 13.0863 12.9154 10.3701 16.2659 10.3701ZM16.2659 14.0535C16.5052 14.0535 16.6992 14.2475 16.6992 14.4868V16.0035H18.2159C18.4552 16.0035 18.6492 16.1975 18.6492 16.4368C18.6492 16.6761 18.4552 16.8701 18.2159 16.8701H16.6992V18.3868C16.6992 18.6261 16.5052 18.8201 16.2659 18.8201C16.0266 18.8201 15.8326 18.6261 15.8326 18.3868V16.8701H14.3159C14.0766 16.8701 13.8826 16.6761 13.8826 16.4368C13.8826 16.1975 14.0766 16.0035 14.3159 16.0035H15.8326V14.4868C15.8326 14.2475 16.0266 14.0535 16.2659 14.0535Z" fill="white"/>
</svg>
