<svg width="40" height="40" viewBox="0 0 40 40" fill="none" xmlns="http://www.w3.org/2000/svg">
<path d="M20 10C18.0605 10.0037 16.1639 10.5713 14.5413 11.6337C12.9186 12.6962 11.6399 14.2075 10.861 15.9838C10.082 17.76 9.83643 19.7244 10.1541 21.6378C10.4717 23.5511 11.3389 25.3308 12.65 26.76C13.5865 27.775 14.723 28.5851 15.988 29.1392C17.253 29.6933 18.619 29.9793 20 29.9793C21.3811 29.9793 22.7471 29.6933 24.0121 29.1392C25.2771 28.5851 26.4136 27.775 27.35 26.76C28.6612 25.3308 29.5284 23.5511 29.846 21.6378C30.1637 19.7244 29.9181 17.76 29.1391 15.9838C28.3602 14.2075 27.0815 12.6962 25.4588 11.6337C23.8362 10.5713 21.9396 10.0037 20 10ZM20 28C17.9285 27.9969 15.939 27.1903 14.45 25.75C14.9021 24.6495 15.6711 23.7083 16.6593 23.0459C17.6475 22.3835 18.8104 22.0298 20 22.0298C21.1897 22.0298 22.3526 22.3835 23.3408 23.0459C24.329 23.7083 25.098 24.6495 25.55 25.75C24.0611 27.1903 22.0716 27.9969 20 28ZM18 18C18 17.6044 18.1173 17.2178 18.3371 16.8889C18.5569 16.56 18.8692 16.3036 19.2347 16.1522C19.6001 16.0009 20.0023 15.9613 20.3902 16.0384C20.7782 16.1156 21.1346 16.3061 21.4143 16.5858C21.694 16.8655 21.8844 17.2219 21.9616 17.6098C22.0388 17.9978 21.9992 18.3999 21.8478 18.7654C21.6964 19.1308 21.4401 19.4432 21.1112 19.6629C20.7823 19.8827 20.3956 20 20 20C19.4696 20 18.9609 19.7893 18.5858 19.4142C18.2108 19.0391 18 18.5304 18 18ZM26.91 24C26.0166 22.4718 24.6415 21.283 23 20.62C23.5092 20.0427 23.841 19.3307 23.9555 18.5694C24.0701 17.8082 23.9625 17.0301 23.6458 16.3285C23.3291 15.6269 22.8166 15.0316 22.17 14.614C21.5233 14.1964 20.7698 13.9742 20 13.9742C19.2303 13.9742 18.4768 14.1964 17.8301 14.614C17.1835 15.0316 16.671 15.6269 16.3543 16.3285C16.0376 17.0301 15.93 17.8082 16.0446 18.5694C16.1591 19.3307 16.4909 20.0427 17 20.62C15.3586 21.283 13.9835 22.4718 13.09 24C12.378 22.7871 12.0018 21.4065 12 20C12 17.8783 12.8429 15.8434 14.3432 14.3431C15.8435 12.8429 17.8783 12 20 12C22.1218 12 24.1566 12.8429 25.6569 14.3431C27.1572 15.8434 28 17.8783 28 20C27.9983 21.4065 27.6221 22.7871 26.91 24Z" fill="#888888"/>
<path d="M20 10C18.0605 10.0037 16.1639 10.5713 14.5413 11.6337C12.9186 12.6962 11.6399 14.2075 10.861 15.9838C10.082 17.76 9.83643 19.7244 10.1541 21.6378C10.4717 23.5511 11.3389 25.3308 12.65 26.76C13.5865 27.775 14.723 28.5851 15.988 29.1392C17.253 29.6933 18.619 29.9793 20 29.9793C21.3811 29.9793 22.7471 29.6933 24.0121 29.1392C25.2771 28.5851 26.4136 27.775 27.35 26.76C28.6612 25.3308 29.5284 23.5511 29.846 21.6378C30.1637 19.7244 29.9181 17.76 29.1391 15.9838C28.3602 14.2075 27.0815 12.6962 25.4588 11.6337C23.8362 10.5713 21.9396 10.0037 20 10ZM20 28C17.9285 27.9969 15.939 27.1903 14.45 25.75C14.9021 24.6495 15.6711 23.7083 16.6593 23.0459C17.6475 22.3835 18.8104 22.0298 20 22.0298C21.1897 22.0298 22.3526 22.3835 23.3408 23.0459C24.329 23.7083 25.098 24.6495 25.55 25.75C24.0611 27.1903 22.0716 27.9969 20 28ZM18 18C18 17.6044 18.1173 17.2178 18.3371 16.8889C18.5569 16.56 18.8692 16.3036 19.2347 16.1522C19.6001 16.0009 20.0023 15.9613 20.3902 16.0384C20.7782 16.1156 21.1346 16.3061 21.4143 16.5858C21.694 16.8655 21.8844 17.2219 21.9616 17.6098C22.0388 17.9978 21.9992 18.3999 21.8478 18.7654C21.6964 19.1308 21.4401 19.4432 21.1112 19.6629C20.7823 19.8827 20.3956 20 20 20C19.4696 20 18.9609 19.7893 18.5858 19.4142C18.2108 19.0391 18 18.5304 18 18ZM26.91 24C26.0166 22.4718 24.6415 21.283 23 20.62C23.5092 20.0427 23.841 19.3307 23.9555 18.5694C24.0701 17.8082 23.9625 17.0301 23.6458 16.3285C23.3291 15.6269 22.8166 15.0316 22.17 14.614C21.5233 14.1964 20.7698 13.9742 20 13.9742C19.2303 13.9742 18.4768 14.1964 17.8301 14.614C17.1835 15.0316 16.671 15.6269 16.3543 16.3285C16.0376 17.0301 15.93 17.8082 16.0446 18.5694C16.1591 19.3307 16.4909 20.0427 17 20.62C15.3586 21.283 13.9835 22.4718 13.09 24C12.378 22.7871 12.0018 21.4065 12 20C12 17.8783 12.8429 15.8434 14.3432 14.3431C15.8435 12.8429 17.8783 12 20 12C22.1218 12 24.1566 12.8429 25.6569 14.3431C27.1572 15.8434 28 17.8783 28 20C27.9983 21.4065 27.6221 22.7871 26.91 24Z" fill="black" fill-opacity="0.2"/>
</svg>
