<svg width="40" height="40" viewBox="0 0 40 40" fill="none" xmlns="http://www.w3.org/2000/svg">
<path d="M29.7099 28.29L25.9999 24.61C27.44 22.8144 28.1374 20.5353 27.9487 18.2413C27.76 15.9473 26.6996 13.8128 24.9854 12.2767C23.2713 10.7405 21.0337 9.91954 18.7328 9.9825C16.4319 10.0455 14.2426 10.9876 12.615 12.6152C10.9875 14.2427 10.0453 16.4321 9.98237 18.7329C9.91941 21.0338 10.7404 23.2714 12.2765 24.9855C13.8127 26.6997 15.9472 27.7601 18.2412 27.9488C20.5352 28.1375 22.8143 27.4401 24.6099 26L28.2899 29.68C28.3829 29.7738 28.4935 29.8482 28.6153 29.8989C28.7372 29.9497 28.8679 29.9758 28.9999 29.9758C29.1319 29.9758 29.2626 29.9497 29.3845 29.8989C29.5063 29.8482 29.6169 29.7738 29.7099 29.68C29.8901 29.4936 29.9909 29.2444 29.9909 28.985C29.9909 28.7257 29.8901 28.4765 29.7099 28.29ZM18.9999 26C17.6154 26 16.2621 25.5895 15.1109 24.8203C13.9598 24.0511 13.0626 22.9579 12.5327 21.6788C12.0029 20.3997 11.8643 18.9923 12.1344 17.6344C12.4045 16.2765 13.0712 15.0292 14.0502 14.0503C15.0291 13.0713 16.2764 12.4046 17.6343 12.1345C18.9921 11.8644 20.3996 12.0031 21.6787 12.5329C22.9578 13.0627 24.051 13.9599 24.8202 15.111C25.5894 16.2622 25.9999 17.6156 25.9999 19C25.9999 20.8565 25.2624 22.637 23.9497 23.9498C22.6369 25.2625 20.8564 26 18.9999 26Z" fill="#888888"/>
<path d="M29.7099 28.29L25.9999 24.61C27.44 22.8144 28.1374 20.5353 27.9487 18.2413C27.76 15.9473 26.6996 13.8128 24.9854 12.2767C23.2713 10.7405 21.0337 9.91954 18.7328 9.9825C16.4319 10.0455 14.2426 10.9876 12.615 12.6152C10.9875 14.2427 10.0453 16.4321 9.98237 18.7329C9.91941 21.0338 10.7404 23.2714 12.2765 24.9855C13.8127 26.6997 15.9472 27.7601 18.2412 27.9488C20.5352 28.1375 22.8143 27.4401 24.6099 26L28.2899 29.68C28.3829 29.7738 28.4935 29.8482 28.6153 29.8989C28.7372 29.9497 28.8679 29.9758 28.9999 29.9758C29.1319 29.9758 29.2626 29.9497 29.3845 29.8989C29.5063 29.8482 29.6169 29.7738 29.7099 29.68C29.8901 29.4936 29.9909 29.2444 29.9909 28.985C29.9909 28.7257 29.8901 28.4765 29.7099 28.29ZM18.9999 26C17.6154 26 16.2621 25.5895 15.1109 24.8203C13.9598 24.0511 13.0626 22.9579 12.5327 21.6788C12.0029 20.3997 11.8643 18.9923 12.1344 17.6344C12.4045 16.2765 13.0712 15.0292 14.0502 14.0503C15.0291 13.0713 16.2764 12.4046 17.6343 12.1345C18.9921 11.8644 20.3996 12.0031 21.6787 12.5329C22.9578 13.0627 24.051 13.9599 24.8202 15.111C25.5894 16.2622 25.9999 17.6156 25.9999 19C25.9999 20.8565 25.2624 22.637 23.9497 23.9498C22.6369 25.2625 20.8564 26 18.9999 26Z" fill="black" fill-opacity="0.2"/>
</svg>
