<svg width="27" height="27" viewBox="0 0 27 27" fill="none" xmlns="http://www.w3.org/2000/svg">
<path d="M25.801 11.9792C25.8004 11.9786 25.7998 11.978 25.7992 11.9774L15.1932 1.37183C14.7412 0.919556 14.1401 0.67041 13.5008 0.67041C12.8615 0.67041 12.2604 0.919357 11.8081 1.37163L1.20776 11.9718C1.20419 11.9754 1.20062 11.9792 1.19705 11.9827C0.268703 12.9164 0.27029 14.4313 1.20161 15.3627C1.6271 15.7883 2.18907 16.0349 2.78991 16.0607C2.81431 16.0631 2.83891 16.0643 2.8637 16.0643H3.28642V23.8693C3.28642 25.4138 4.54306 26.6704 6.08792 26.6704H10.2373C10.6578 26.6704 10.999 26.3294 10.999 25.9087V19.7896C10.999 19.0848 11.5723 18.5115 12.2771 18.5115H14.7245C15.4293 18.5115 16.0026 19.0848 16.0026 19.7896V25.9087C16.0026 26.3294 16.3435 26.6704 16.7643 26.6704H20.9137C22.4585 26.6704 23.7152 25.4138 23.7152 23.8693V16.0643H24.1071C24.7463 16.0643 25.3473 15.8153 25.7998 15.3631C26.7321 14.4301 26.7325 12.9127 25.801 11.9792Z" fill="white"/>
</svg>
