<svg width="176" height="191" viewBox="0 0 176 191" fill="none" xmlns="http://www.w3.org/2000/svg">
<g clip-path="url(#clip0_15_10746)">
<path d="M94.3682 20.0596C100.477 36.3925 120.467 33.9347 134.033 30.4461C137.285 29.5739 140.617 28.6225 143.552 26.9575C146.487 25.2925 148.947 22.5968 149.899 19.346C150.93 15.6989 149.74 11.6553 147.677 8.48384C145.773 5.55026 142.997 2.45811 140.062 0.555243C138.792 3.80597 134.271 4.04383 131.177 4.04383C126.814 4.04383 122.847 2.37882 118.802 1.18953C114.676 0.000240743 110.234 -0.237617 106.109 0.872387C97.7793 2.85454 91.1157 11.3381 94.3682 20.0596Z" fill="#0C0B0B"/>
<path d="M106.822 129.395C106.584 129.395 106.504 129.395 106.346 129.474L106.822 129.395Z" fill="#0C0B0B"/>
<path d="M106.822 129.395C106.584 129.395 106.504 129.395 106.346 129.474L106.822 129.395Z" fill="#0C0B0B"/>
<path d="M89.2109 49.8708V34.5686C89.2109 21.5657 101.348 10.9414 116.183 10.9414C123.56 10.9414 130.303 13.5578 135.222 17.8393C140.14 22.1207 143.155 27.9879 143.155 34.4894V49.7916" stroke="#0C0B0B" stroke-width="2" stroke-miterlimit="10"/>
<path d="M143.155 66.4419V84.1227C143.155 97.1256 131.017 107.75 116.183 107.75C101.348 107.75 89.2109 97.1256 89.2109 84.1227V66.4419" stroke="#0C0B0B" stroke-width="2" stroke-miterlimit="10"/>
<path d="M100.158 71.9125C107.737 71.9125 113.881 65.7714 113.881 58.196C113.881 50.6206 107.737 44.4795 100.158 44.4795C92.578 44.4795 86.4336 50.6206 86.4336 58.196C86.4336 65.7714 92.578 71.9125 100.158 71.9125Z" stroke="#0C0B0B" stroke-width="2" stroke-miterlimit="10"/>
<path d="M132.128 71.9125C139.708 71.9125 145.852 65.7714 145.852 58.196C145.852 50.6206 139.708 44.4795 132.128 44.4795C124.549 44.4795 118.404 50.6206 118.404 58.196C118.404 65.7714 124.549 71.9125 132.128 71.9125Z" stroke="#0C0B0B" stroke-width="2" stroke-miterlimit="10"/>
<path d="M113.803 57.7993H118.562" stroke="#0C0B0B" stroke-width="4" stroke-miterlimit="10"/>
<path d="M127.209 105.609H127.288V130.425" stroke="#0C0B0B" stroke-width="2" stroke-miterlimit="10"/>
<path d="M107.457 130.108V106.243" stroke="#0C0B0B" stroke-width="2" stroke-miterlimit="10"/>
<path d="M100.158 61.3673C101.91 61.3673 103.331 59.9474 103.331 58.1959C103.331 56.4443 101.91 55.0244 100.158 55.0244C98.405 55.0244 96.9844 56.4443 96.9844 58.1959C96.9844 59.9474 98.405 61.3673 100.158 61.3673Z" fill="#0C0B0B"/>
<path d="M132.128 61.3673C133.881 61.3673 135.301 59.9474 135.301 58.1959C135.301 56.4443 133.881 55.0244 132.128 55.0244C130.376 55.0244 128.955 56.4443 128.955 58.1959C128.955 59.9474 130.376 61.3673 132.128 61.3673Z" fill="#0C0B0B"/>
<path d="M87.386 63.3496H85.7995C84.0542 63.3496 82.4676 64.0632 81.2777 65.1732C80.1671 66.3625 79.4531 67.9482 79.4531 69.6925C79.4531 73.1811 82.309 76.0354 85.7995 76.0354H88.9726" stroke="#0C0B0B" stroke-width="2" stroke-miterlimit="10"/>
<path d="M144.899 63.3496H146.486C149.976 63.3496 152.832 66.2039 152.832 69.6925C152.832 71.4368 152.118 73.0225 150.928 74.2118C149.817 75.3218 148.231 76.0354 146.486 76.0354H143.312" stroke="#0C0B0B" stroke-width="2" stroke-miterlimit="10"/>
<path d="M89.0518 67.7896V71.5953H86.5133C85.482 71.5953 84.6094 70.7231 84.6094 69.6924C84.6094 69.1374 84.8474 68.6617 85.1647 68.3446C85.482 68.0274 85.958 67.7896 86.5133 67.7896H89.0518Z" fill="#0C0B0B"/>
<path d="M143.312 71.5953V67.7896H145.851C146.882 67.7896 147.755 68.6617 147.755 69.6924C147.755 70.2474 147.517 70.7231 147.2 71.0403C146.882 71.3574 146.406 71.5953 145.851 71.5953H143.312Z" fill="#0C0B0B"/>
<path d="M116.183 71.2783C116.183 71.2783 112.217 77.6212 118.563 76.0355" stroke="#0C0B0B" stroke-width="2" stroke-miterlimit="10" stroke-linecap="round"/>
<path d="M109.043 89.5933C109.043 89.5933 115.389 97.4426 124.115 89.5933" stroke="#0C0B0B" stroke-width="2" stroke-miterlimit="10" stroke-linecap="round"/>
<path d="M93.9707 41.9423C93.9707 41.9423 98.3338 37.5816 105.87 41.1495" stroke="#0C0B0B" stroke-width="3" stroke-miterlimit="10" stroke-linecap="round"/>
<path d="M138.395 41.9423C138.395 41.9423 134.032 37.5816 126.496 41.1495" stroke="#0C0B0B" stroke-width="3" stroke-miterlimit="10" stroke-linecap="round"/>
<path d="M89.0527 32.9039C89.0527 32.9039 78.1053 24.4203 82.8651 14.1131C87.6248 3.80593 102.697 9.35596 102.697 9.35596C102.697 9.35596 108.726 35.0446 89.0527 32.9039Z" fill="#0C0B0B"/>
<path d="M34.6331 96.2541C33.6812 93.1619 32.3326 91.6555 31.6186 87.1362C30.1114 78.0976 30.6667 69.4554 26.9382 69.7725C25.4309 69.9311 24.955 71.5168 25.0343 72.389L26.2242 86.6604C25.7483 88.3255 24.8756 87.6912 24.8756 87.6912C24.8756 87.6912 21.7818 75.0054 21.3852 72.7061C20.9885 70.4861 19.8779 69.2175 18.3707 69.3761C15.7528 69.6139 16.7841 72.7854 17.0221 73.9747L19.7986 89.3562C20.0366 90.8626 18.45 90.3869 18.45 90.3869L12.2623 75.0054C11.5484 73.3404 10.1998 73.7368 10.1998 73.7368C7.74056 74.2918 8.6925 76.5118 8.6925 76.5118L14.0076 92.8448C14.0076 92.924 14.0076 93.0033 14.0076 93.0826C14.0869 93.9548 12.9763 94.4305 12.5003 93.6376C10.8344 91.1005 7.5819 87.0569 4.88471 85.4712C3.53611 84.6783 2.58416 84.8369 2.02886 85.2333C1.47356 85.6297 1.39423 86.3433 1.79087 86.8983L11.707 101.249C14.0076 116.472 23.2891 118.296 23.2891 118.296L28.8421 140.02L37.013 174.271L38.0443 178.632C38.9962 182.834 42.804 185.847 47.0878 185.847H51.4509C54.5447 185.847 56.6866 182.834 55.7347 179.98L35.9817 119.881L35.1091 114.648C37.013 112.508 38.2823 107.988 38.9169 104.738C39.3135 102.993 39.4722 101.17 39.3135 99.4255C38.9962 95.0648 41.9314 87.2154 41.9314 87.2154C41.6934 85.709 38.8376 86.9776 38.8376 86.9776C35.6644 88.0876 34.8711 93.1619 34.6331 95.9369C34.5538 97.1262 33.9985 98.1569 33.2052 98.9498C28.4454 103.628 28.0488 108.861 28.0488 108.861" stroke="#0C0B0B" stroke-width="2" stroke-miterlimit="10"/>
<path d="M21.3058 72.7847C20.9092 70.5647 20.1952 68.8997 18.2913 69.4547C15.7528 70.1683 16.7047 72.864 16.9427 74.0533" stroke="#0C0B0B" stroke-width="2" stroke-miterlimit="10"/>
<path d="M175.679 190.207V191H158.385L154.736 170.782V191H79.8495V179.503C79.8495 176.728 79.8495 173.953 79.9289 171.178C78.2629 172.526 76.4384 173.636 74.2965 174.825L57.7167 185.925C57.6374 186.005 57.558 186.005 57.4787 186.084C56.7648 186.48 55.9715 186.718 55.0988 186.718L51.651 186.849C51.651 186.849 55.3368 185.45 56.2094 181.961L50.2598 162.14C58.748 155.083 72.4719 134.707 98.8092 130.505C99.9198 130.267 101.11 130.029 102.379 129.87C103.569 129.712 104.759 129.553 106.107 129.474L106.98 129.395V129.553L106.504 129.632C106.663 129.632 106.742 129.632 106.901 129.553H106.98C107.139 129.553 107.297 129.553 107.456 129.474H107.535L108.329 129.395V132.407C108.329 132.804 108.487 133.28 108.884 133.676C110.074 135.024 112.771 136.055 116.024 136.292C116.579 136.372 117.134 136.372 117.689 136.372C117.769 136.372 117.848 136.372 117.848 136.372H117.927C121.101 136.292 124.036 135.42 125.543 134.152C126.019 133.755 126.495 133.2 126.495 132.407V129.632L127.288 129.791H127.447C127.685 129.791 127.844 129.87 128.082 129.87V129.632L129.113 129.791C158.227 133.359 175.679 155.955 175.679 190.207Z" fill="#0C0B0B"/>
<path d="M57.6384 185.846L57.4004 186.005C57.4797 186.005 57.559 185.925 57.6384 185.846Z" fill="#0C0B0B"/>
</g>
<defs>
<clipPath id="clip0_15_10746">
<rect width="175" height="191" fill="white" transform="translate(0.679688)"/>
</clipPath>
</defs>
</svg>
