<svg width="27" height="27" viewBox="0 0 27 27" fill="none" xmlns="http://www.w3.org/2000/svg">
<path d="M18.854 20.7002V22.7397C18.854 24.989 17.0242 26.8188 14.7749 26.8188H4.52631C2.27706 26.8188 0.447266 24.989 0.447266 22.7397V4.79194C0.447266 2.54269 2.27706 0.712891 4.52631 0.712891H14.7749C17.0242 0.712891 18.854 2.54269 18.854 4.79194V6.83146C18.854 7.39472 18.3975 7.85122 17.8342 7.85122C17.2709 7.85122 16.8144 7.39472 16.8144 6.83146V4.79194C16.8144 3.66741 15.8994 2.75241 14.7749 2.75241H4.52631C3.40179 2.75241 2.48679 3.66741 2.48679 4.79194V22.7397C2.48679 23.8643 3.40179 24.7793 4.52631 24.7793H14.7749C15.8994 24.7793 16.8144 23.8643 16.8144 22.7397V20.7002C16.8144 20.137 17.2709 19.6805 17.8342 19.6805C18.3975 19.6805 18.854 20.137 18.854 20.7002ZM25.8065 12.0141L23.523 9.73061C23.1246 9.33227 22.4789 9.33227 22.0808 9.73061C21.6824 10.1288 21.6824 10.7745 22.0808 11.1726L23.705 12.7971H11.4607C10.8974 12.7971 10.4409 13.2536 10.4409 13.8168C10.4409 14.3801 10.8974 14.8366 11.4607 14.8366H23.705L22.0808 16.461C21.6824 16.8592 21.6824 17.5049 22.0808 17.9031C22.2799 18.1022 22.5408 18.2018 22.8018 18.2018C23.0629 18.2018 23.3238 18.1022 23.523 17.9031L25.8065 15.6195C26.8005 14.6255 26.8005 13.0082 25.8065 12.0141Z" fill="white"/>
</svg>
