<svg width="192" height="31" viewBox="0 0 192 31" fill="none" xmlns="http://www.w3.org/2000/svg">
<path d="M2.2251 9.05839C3.59834 9.05839 4.97159 9.05839 6.34484 9.05839C6.52908 9.04476 6.71368 9.08021 6.87622 9.16042C7.03875 9.24062 7.17222 9.36214 7.26034 9.51017C9.09133 12.0123 10.9478 14.4911 12.8042 16.9816C12.9017 17.0964 13.0079 17.2048 13.1221 17.306V9.11633H17.814V23.9666C16.3136 23.9666 14.8259 23.9666 13.3382 23.9666C13.1856 23.9666 12.9949 23.7929 12.8932 23.6655C11.5072 21.8237 10.1467 19.9703 8.76073 18.1169C8.20126 17.3639 7.61635 16.6226 6.96787 15.8001V24.0014H2.2251V9.05839Z" fill="white"/>
<path d="M55.6298 9.05844L55.3755 9.33648C53.6335 10.9582 51.8915 12.5915 50.1368 14.2016C50.053 14.2558 49.9828 14.3257 49.9309 14.4065C49.879 14.4873 49.8466 14.5773 49.8358 14.6704C49.825 14.7635 49.836 14.8577 49.8682 14.9466C49.9004 15.0356 49.9529 15.1172 50.0224 15.1862C51.6372 17.5841 53.2139 19.9935 54.8033 22.3913C55.1339 22.8894 55.4518 23.3875 55.8205 23.9319H55.3373C53.6208 23.9319 51.9043 23.9319 50.1877 23.9319C50.0246 23.948 49.8604 23.9133 49.7218 23.8333C49.5832 23.7534 49.4785 23.633 49.4248 23.4918C48.4076 21.65 47.3649 19.8197 46.3604 18.0358C45.6229 18.6613 44.8727 19.31 44.0971 19.9356C43.898 20.1234 43.7505 20.3513 43.6665 20.601C43.5825 20.8506 43.5645 21.1148 43.6139 21.3719C43.6139 22.1944 43.6139 23.0284 43.6139 23.8856H38.5278V9.05844H43.6139V14.6418C44.4277 13.8078 45.1143 13.1128 45.7755 12.4062C46.6656 11.4679 47.5938 10.5643 48.3948 9.56813C48.5619 9.36253 48.788 9.20293 49.0483 9.10688C49.3085 9.01082 49.5928 8.98202 49.8698 9.0237C51.5737 9.0237 53.2648 9.0237 54.9559 9.0237L55.6298 9.05844Z" fill="white"/>
<path d="M73.9642 23.9549V9.09302H74.4855C77.0285 9.09302 79.6606 9.09302 82.2418 9.09302C83.4316 9.10107 84.5997 9.38407 85.6368 9.91549C86.3782 10.3208 87.021 10.8595 87.5261 11.4988C88.0311 12.1382 88.3877 12.8647 88.574 13.6338C89.1144 15.5566 89.1144 17.5724 88.574 19.4952C88.2699 20.579 87.6278 21.5595 86.7252 22.318C85.8226 23.0765 84.6982 23.5807 83.4879 23.7696C81.5766 23.9739 79.6506 24.0398 77.7279 23.9665C76.4564 23.9665 75.1849 23.9665 73.9133 23.9665L73.9642 23.9549ZM79.0503 12.4986V20.5377C79.7449 20.5726 80.441 20.5726 81.1356 20.5377C81.7451 20.5748 82.3473 20.3991 82.8197 20.0462C83.292 19.6933 83.5992 19.1898 83.6786 18.638C83.971 17.3543 83.971 16.0296 83.6786 14.7459C83.6462 14.3871 83.5225 14.0401 83.3172 13.7324C83.112 13.4248 82.8308 13.165 82.4961 12.9736C81.4204 12.52 80.2239 12.3592 79.0503 12.5102V12.4986Z" fill="white"/>
<path d="M57.4985 23.9202V9.09302H70.8877V12.2554H62.61V14.6648H70.2392V17.6534H62.61V20.5377H71.142V23.9202H57.4985Z" fill="white"/>
<path d="M189.291 13.2285L186.38 13.3675C185.973 13.3675 185.553 13.437 185.108 13.4833C184.663 13.5297 184.498 13.4138 184.358 13.0084C184.217 12.6954 184.002 12.4144 183.729 12.185C183.456 11.9557 183.131 11.7837 182.777 11.681C182.423 11.5783 182.049 11.5475 181.681 11.5907C181.312 11.6339 180.959 11.7501 180.645 11.9311C180.482 12.011 180.347 12.1325 180.258 12.2808C180.17 12.4292 180.13 12.5979 180.145 12.7663C180.16 12.9347 180.228 13.0955 180.342 13.2291C180.456 13.3626 180.61 13.463 180.785 13.5181C181.878 13.8772 183.023 14.0741 184.142 14.3637C185.682 14.623 187.125 15.2326 188.338 16.136C188.961 16.6401 189.413 17.2967 189.638 18.0278C189.863 18.759 189.853 19.5337 189.609 20.2598C189.365 21.1727 188.833 22.0004 188.078 22.6406C187.323 23.2809 186.379 23.7056 185.362 23.8623C182.868 24.4639 180.224 24.2928 177.848 23.3758C176.76 22.8834 175.923 22.0291 175.508 20.9896C175.255 20.3557 175.055 19.7051 174.91 19.0435L179.691 18.7771C179.947 19.3768 180.244 19.961 180.581 20.5262C181.319 21.5919 183.926 21.6846 184.549 20.3641C184.636 20.2066 184.689 20.035 184.704 19.8589C184.719 19.6829 184.696 19.5059 184.635 19.3381C184.575 19.1703 184.479 19.0149 184.353 18.8809C184.227 18.7469 184.073 18.6368 183.9 18.557C182.896 18.1979 181.84 17.9546 180.81 17.6766C179.275 17.3699 177.855 16.7031 176.691 15.7422C176.081 15.1427 175.702 14.3783 175.613 13.565C175.523 12.7516 175.727 11.9339 176.195 11.2361C176.675 10.5448 177.334 9.97188 178.115 9.56782C178.895 9.16377 179.773 8.94106 180.67 8.91935C181.515 8.83412 182.364 8.7993 183.213 8.8151C184.851 8.76523 186.454 9.24541 187.74 10.1704C188.444 10.8007 188.926 11.607 189.126 12.4872C189.19 12.7072 189.215 12.9389 189.279 13.2169L189.291 13.2285Z" fill="white"/>
<path d="M24.3244 23.9435H19.2383C19.4926 23.2717 19.7215 22.623 19.9758 21.9859C20.8785 19.7618 21.8068 17.5493 22.7095 15.3252L25.0619 9.53337C25.0985 9.38509 25.1941 9.25445 25.3303 9.16671C25.4666 9.07898 25.6337 9.0404 25.7993 9.05844C27.287 9.05844 28.7747 9.05844 30.2751 9.05844C30.4451 9.03117 30.6202 9.06559 30.7627 9.15434C30.9053 9.24309 31.0041 9.37913 31.038 9.53337C32.7164 13.6919 34.4203 17.8505 36.1241 22.0091C36.3784 22.6346 36.6073 23.2833 36.8616 23.9551H31.5975C31.3813 23.2948 31.127 22.6346 30.949 21.9627C30.86 21.6384 30.7201 21.5225 30.3514 21.5225C28.7493 21.5225 27.1599 21.5225 25.5705 21.5225C25.434 21.506 25.2958 21.5394 25.1862 21.6154C25.0767 21.6913 25.0045 21.8037 24.9856 21.928C24.7948 22.5998 24.5532 23.2601 24.3244 23.9435ZM29.7283 18.3022L27.9609 12.9621C27.3633 14.7692 26.7911 16.5184 26.1935 18.3022H29.7283Z" fill="white"/>
<path d="M173.283 13.4488L168.846 14.3523C168.57 13.5898 168.001 12.9438 167.244 12.5337C166.825 12.3551 166.369 12.2624 165.908 12.262C165.446 12.2616 164.99 12.3536 164.571 12.5315C164.153 12.7094 163.783 12.9688 163.486 13.2915C163.19 13.6141 162.975 13.9921 162.857 14.3987C162.488 15.8193 162.488 17.2988 162.857 18.7194C162.954 19.2481 163.24 19.7329 163.669 20.0992C164.099 20.4655 164.649 20.693 165.235 20.7465C165.851 20.8722 166.497 20.81 167.071 20.5693C167.645 20.3287 168.117 19.9229 168.413 19.4144C168.668 18.9279 168.871 18.4182 169.1 17.9201C170.371 18.2792 171.757 18.6267 173.093 19.009C173.153 19.0526 173.202 19.1093 173.233 19.174C173.264 19.2387 173.277 19.3093 173.271 19.3797C173.031 20.5391 172.408 21.6041 171.485 22.4321C170.562 23.2602 169.384 23.8118 168.108 24.0132C165.772 24.5093 163.32 24.2556 161.166 23.295C160.119 22.7475 159.26 21.9453 158.686 20.9782C157.613 19.1865 157.228 17.1192 157.593 15.1053C157.726 13.7762 158.249 12.5041 159.106 11.4217C160.077 10.2326 161.493 9.40855 163.086 9.10493C165.087 8.64981 167.188 8.71402 169.151 9.29027C170.034 9.5854 170.834 10.0554 171.494 10.6663C172.153 11.2773 172.656 12.014 172.965 12.8233C173.054 13.0086 173.118 13.194 173.22 13.4372L173.283 13.4488Z" fill="white"/>
<path d="M116.51 9.05832C119.575 9.05832 122.601 9.05832 125.627 9.05832C126.234 9.03792 126.838 9.13008 127.404 9.32921C127.971 9.52835 128.486 9.8303 128.92 10.2167C129.452 10.7689 129.843 11.4217 130.065 12.128C130.312 12.8574 130.374 13.6286 130.246 14.3831C130.119 15.1376 129.804 15.8558 129.327 16.4835C128.934 16.9728 128.427 17.3771 127.842 17.6674C127.257 17.9577 126.61 18.127 125.945 18.1631C124.521 18.3137 123.059 18.3021 121.558 18.36V23.8971H116.472V9.05832H116.51ZM121.596 15.4062C122.41 15.3483 123.173 15.3367 123.911 15.2325C124.283 15.1433 124.612 14.9444 124.847 14.6667C125.082 14.389 125.21 14.0482 125.21 13.6976C125.21 13.347 125.082 13.0062 124.847 12.7285C124.612 12.4508 124.283 12.2519 123.911 12.1628C123.148 12.0585 122.372 12.0469 121.571 12.0006V15.4062H121.596Z" fill="white"/>
<path d="M147.077 9.10474V12.6841H142.093V23.9203H137.007V12.7188H131.921V9.10474H147.077Z" fill="white"/>
<path d="M154.477 9.10474V23.9319H149.454V9.10474H154.477Z" fill="white"/>
<path d="M103.654 15.777C104.404 15.777 105.053 15.777 105.701 15.777C105.911 15.795 106.108 15.8765 106.261 16.0086C106.706 16.3909 107.125 16.7847 107.532 17.167C107.939 17.5493 108.066 17.4798 108.384 17.167C108.893 16.6921 109.478 16.2867 109.935 15.777C110.2 15.4702 110.56 15.2438 110.969 15.1279C111.378 15.0121 111.815 15.0122 112.224 15.1283C112.2 16.6874 111.731 18.214 110.863 19.558C109.996 20.9021 108.759 22.0174 107.275 22.7944C105.791 23.5714 104.111 23.9834 102.399 23.9899C100.688 23.9964 99.0036 23.5972 97.5126 22.8314C95.975 22.0823 94.6896 20.9667 93.7938 19.6039C92.898 18.241 92.4254 16.6821 92.4265 15.0935H93.8506L93.4183 15.6843H94.1558C95.9868 15.6843 97.8305 15.6843 99.6615 15.6843C100.068 15.6843 100.234 15.777 100.348 16.1708C100.831 18.059 101.365 19.9355 101.887 21.8121C102.065 22.4492 102.217 22.4955 102.739 22.0322C103.26 21.5688 103.883 20.9896 104.481 20.5031C104.622 20.4037 104.723 20.2648 104.769 20.1079C104.815 19.9509 104.803 19.7845 104.735 19.6343C104.353 18.3485 103.997 17.0512 103.616 15.6959L103.654 15.777Z" fill="white"/>
<path d="M94.1436 15.0471L99.3695 10.4715L102.205 7.99264C102.586 7.63354 102.879 7.65671 103.26 7.99264C104.812 9.38268 104.812 9.37111 104.367 11.294C104.1 12.4524 103.833 13.6107 103.553 14.7691C103.532 14.849 103.502 14.9266 103.464 15.0008H100.272C100.412 14.3868 100.539 13.8424 100.705 13.0663C100.018 13.6571 99.4331 14.2247 98.8228 14.6764C98.5807 14.8759 98.2713 14.9944 97.9454 15.0124C96.7375 15.0124 95.5295 15.0124 94.1309 15.0124L94.1436 15.0471Z" fill="white"/>
<path d="M105.753 15.0127C106.414 14.3524 107.126 13.611 107.864 12.9044C107.948 12.8648 108.042 12.8441 108.137 12.8441C108.232 12.8441 108.326 12.8648 108.41 12.9044C109.148 13.5647 109.86 14.2597 110.648 15.0011L105.753 15.0127Z" fill="white"/>
<path d="M102.395 25.4841C100.132 25.4841 97.9193 24.8727 96.0373 23.7271C94.1554 22.5816 92.6887 20.9533 91.8225 19.0484C90.9564 17.1434 90.7298 15.0472 91.1713 13.0249C91.6129 11.0026 92.7028 9.14495 94.3032 7.68694C95.9036 6.22893 97.9427 5.23601 100.163 4.83375C102.382 4.43149 104.683 4.63794 106.774 5.427C108.866 6.21607 110.653 7.55232 111.91 9.26676C113.168 10.9812 113.839 12.9969 113.839 15.0588C113.839 17.8238 112.633 20.4755 110.487 22.4306C108.341 24.3857 105.43 25.4841 102.395 25.4841ZM102.395 5.50223C100.32 5.50223 98.2922 6.06268 96.5671 7.11277C94.8421 8.16286 93.4975 9.65539 92.7036 11.4016C91.9096 13.1479 91.7018 15.0694 92.1066 16.9232C92.5114 18.7769 93.5105 20.4798 94.9775 21.8163C96.4446 23.1528 98.3137 24.063 100.349 24.4317C102.383 24.8004 104.493 24.6112 106.409 23.8879C108.326 23.1646 109.965 21.9397 111.117 20.3681C112.27 18.7965 112.885 16.9489 112.885 15.0588C112.882 12.5252 111.776 10.0962 109.809 8.30466C107.842 6.51312 105.176 5.5053 102.395 5.50223Z" fill="white"/>
</svg>
