<svg width="233" height="40" viewBox="0 0 233 40" fill="none" xmlns="http://www.w3.org/2000/svg">
<path d="M2.69238 12.0308C4.35392 12.0308 6.01547 12.0308 7.67701 12.0308C7.89993 12.0127 8.12328 12.0597 8.31994 12.1663C8.5166 12.2728 8.67808 12.4342 8.7847 12.6308C11.0001 15.9539 13.2462 19.2461 15.4924 22.5538C15.6104 22.7062 15.7389 22.8502 15.877 22.9846V12.1077H21.5539V31.8308C19.7385 31.8308 17.9385 31.8308 16.1385 31.8308C15.9539 31.8308 15.7232 31.6 15.6001 31.4308C13.9232 28.9846 12.277 26.5231 10.6001 24.0615C9.92315 23.0615 9.21545 22.0769 8.43084 20.9846V31.8769H2.69238V12.0308Z" fill="#0A0A0A"/>
<path d="M67.3078 12.0308L67.0001 12.4C64.8924 14.5539 62.7847 16.7231 60.6616 18.8615C60.5602 18.9336 60.4753 19.0263 60.4125 19.1337C60.3497 19.241 60.3105 19.3605 60.2974 19.4842C60.2843 19.6078 60.2977 19.7329 60.3366 19.851C60.3755 19.9691 60.4391 20.0776 60.5232 20.1692C62.477 23.3539 64.3847 26.5539 66.3078 29.7385C66.7078 30.4 67.0924 31.0615 67.5385 31.7846H66.9539C64.877 31.7846 62.8001 31.7846 60.7232 31.7846C60.5259 31.806 60.3271 31.7599 60.1594 31.6537C59.9918 31.5475 59.8651 31.3876 59.8001 31.2C58.5693 28.7539 57.3078 26.3231 56.0924 23.9539C55.2001 24.7846 54.2924 25.6462 53.3539 26.4769C53.113 26.7264 52.9345 27.0292 52.8329 27.3607C52.7313 27.6922 52.7095 28.0431 52.7693 28.3846C52.7693 29.4769 52.7693 30.5846 52.7693 31.7231H46.6155V12.0308H52.7693V19.4462C53.7539 18.3385 54.5847 17.4154 55.3847 16.477C56.4616 15.2308 57.5847 14.0308 58.5539 12.7077C58.7561 12.4346 59.0297 12.2227 59.3445 12.0951C59.6594 11.9675 60.0034 11.9293 60.3386 11.9846C62.4001 11.9846 64.4462 11.9846 66.4924 11.9846L67.3078 12.0308Z" fill="#0A0A0A"/>
<path d="M89.4922 31.8154V12.0769H90.1229C93.1999 12.0769 96.3845 12.0769 99.5076 12.0769C100.947 12.0876 102.361 12.4635 103.615 13.1692C104.512 13.7075 105.29 14.423 105.901 15.2721C106.512 16.1213 106.944 17.0861 107.169 18.1077C107.823 20.6614 107.823 23.3386 107.169 25.8923C106.801 27.3318 106.024 28.6339 104.932 29.6413C103.84 30.6487 102.48 31.3184 101.015 31.5692C98.7028 31.8406 96.3724 31.928 94.046 31.8307C92.5076 31.8307 90.9691 31.8307 89.4307 31.8307L89.4922 31.8154ZM95.6461 16.6V27.2769C96.4865 27.3232 97.3287 27.3232 98.1691 27.2769C98.9066 27.3262 99.6352 27.0928 100.207 26.6241C100.778 26.1554 101.15 25.4867 101.246 24.7539C101.6 23.0489 101.6 21.2895 101.246 19.5846C101.207 19.1081 101.057 18.6472 100.809 18.2386C100.56 17.83 100.22 17.485 99.8153 17.2308C98.5138 16.6284 97.0661 16.4147 95.6461 16.6154V16.6Z" fill="#0A0A0A"/>
<path d="M69.5691 31.7692V12.0769H85.7691V16.2769H75.7537V19.4769H84.9845V23.4462H75.7537V27.2769H86.0768V31.7692H69.5691Z" fill="#0A0A0A"/>
<path d="M229.031 17.5692L225.508 17.7538C225.015 17.7538 224.508 17.8461 223.969 17.9077C223.431 17.9692 223.231 17.8154 223.062 17.2769C222.891 16.8612 222.631 16.488 222.301 16.1834C221.97 15.8788 221.577 15.6503 221.149 15.5139C220.721 15.3775 220.268 15.3366 219.822 15.394C219.377 15.4514 218.949 15.6057 218.569 15.8461C218.372 15.9522 218.209 16.1136 218.102 16.3106C217.994 16.5076 217.947 16.7317 217.964 16.9553C217.982 17.179 218.065 17.3926 218.203 17.57C218.34 17.7473 218.526 17.8807 218.739 17.9538C220.062 18.4307 221.446 18.6923 222.8 19.0769C224.664 19.4212 226.41 20.2309 227.877 21.4308C228.631 22.1002 229.178 22.9723 229.45 23.9433C229.723 24.9144 229.711 25.9433 229.415 26.9077C229.12 28.1201 228.476 29.2194 227.563 30.0697C226.65 30.9201 225.507 31.4841 224.277 31.6923C221.258 32.4913 218.06 32.264 215.185 31.0461C213.869 30.3922 212.856 29.2575 212.354 27.8769C212.047 27.0351 211.806 26.171 211.631 25.2923L217.415 24.9384C217.725 25.7349 218.084 26.5108 218.492 27.2615C219.385 28.6769 222.539 28.8 223.292 27.0461C223.399 26.8371 223.463 26.6091 223.481 26.3753C223.499 26.1415 223.47 25.9064 223.397 25.6835C223.325 25.4607 223.209 25.2543 223.056 25.0763C222.903 24.8983 222.717 24.7521 222.508 24.6461C221.292 24.1692 220.015 23.8461 218.769 23.4769C216.912 23.0695 215.194 22.1839 213.785 20.9077C213.047 20.1116 212.589 19.0963 212.48 18.0161C212.372 16.9359 212.619 15.8498 213.185 14.9231C213.765 14.005 214.563 13.244 215.508 12.7074C216.452 12.1707 217.514 11.875 218.6 11.8461C219.622 11.7329 220.649 11.6867 221.677 11.7077C223.658 11.6414 225.598 12.2792 227.154 13.5077C228.005 14.3447 228.589 15.4156 228.831 16.5846C228.908 16.8769 228.939 17.1846 229.015 17.5538L229.031 17.5692Z" fill="#0A0A0A"/>
<path d="M29.4307 31.8H23.2769C23.5845 30.9077 23.8615 30.0462 24.1692 29.2C25.2615 26.2462 26.3845 23.3077 27.4768 20.3539L30.323 12.6616C30.3673 12.4646 30.483 12.2911 30.6479 12.1746C30.8127 12.0581 31.0149 12.0068 31.2153 12.0308C33.0153 12.0308 34.8153 12.0308 36.6307 12.0308C36.8364 11.9946 37.0482 12.0403 37.2207 12.1582C37.3932 12.276 37.5127 12.4567 37.5538 12.6616C39.5845 18.1846 41.6461 23.7077 43.7076 29.2308C44.0153 30.0616 44.2922 30.9231 44.5999 31.8154H38.2307C37.9692 30.9385 37.6615 30.0616 37.4461 29.1693C37.3384 28.7385 37.1691 28.5847 36.723 28.5847C34.7845 28.5847 32.8615 28.5847 30.9384 28.5847C30.7732 28.5627 30.6061 28.6071 30.4735 28.7079C30.3409 28.8088 30.2536 28.9581 30.2307 29.1231C29.9999 30.0154 29.7076 30.8923 29.4307 31.8ZM35.9692 24.3077L33.8307 17.2154C33.1076 19.6154 32.4153 21.9385 31.6922 24.3077H35.9692Z" fill="#0A0A0A"/>
<path d="M209.662 17.8616L204.292 19.0616C203.959 18.0488 203.27 17.1908 202.354 16.6462C201.848 16.409 201.296 16.2858 200.738 16.2853C200.179 16.2848 199.627 16.407 199.121 16.6432C198.614 16.8795 198.166 17.2241 197.808 17.6526C197.449 18.0811 197.189 18.5831 197.046 19.1231C196.6 21.0099 196.6 22.9748 197.046 24.8615C197.164 25.5637 197.51 26.2076 198.029 26.6941C198.549 27.1806 199.215 27.4827 199.923 27.5538C200.67 27.7208 201.45 27.6381 202.145 27.3185C202.84 26.9989 203.41 26.46 203.769 25.7846C204.077 25.1385 204.323 24.4615 204.6 23.8C206.138 24.2769 207.815 24.7385 209.431 25.2462C209.504 25.3041 209.563 25.3794 209.6 25.4653C209.638 25.5512 209.654 25.645 209.646 25.7385C209.356 27.2783 208.602 28.6928 207.486 29.7925C206.37 30.8923 204.944 31.6249 203.4 31.8923C200.574 32.5512 197.607 32.2143 195 30.9385C193.734 30.2114 192.695 29.1459 192 27.8616C190.701 25.4819 190.236 22.7363 190.677 20.0615C190.839 18.2964 191.471 16.6069 192.508 15.1692C193.683 13.59 195.396 12.4956 197.323 12.0923C199.744 11.4879 202.286 11.5731 204.662 12.3385C205.73 12.7305 206.698 13.3546 207.496 14.1661C208.295 14.9775 208.903 15.9559 209.277 17.0308C209.385 17.2769 209.462 17.5231 209.585 17.8462L209.662 17.8616Z" fill="#0A0A0A"/>
<path d="M140.969 12.0307C144.677 12.0307 148.338 12.0307 152 12.0307C152.734 12.0036 153.465 12.126 154.15 12.3904C154.835 12.6549 155.459 13.0559 155.985 13.5691C156.628 14.3025 157.101 15.1695 157.369 16.1076C157.668 17.0764 157.744 18.1005 157.589 19.1026C157.434 20.1047 157.054 21.0586 156.477 21.8922C156.001 22.5421 155.387 23.079 154.68 23.4646C153.973 23.8502 153.189 24.075 152.385 24.123C150.662 24.323 148.892 24.3076 147.077 24.3845V31.7384H140.923V12.0307H140.969ZM147.123 20.4615C148.108 20.3845 149.031 20.3692 149.923 20.2307C150.374 20.1123 150.772 19.8481 151.056 19.4793C151.341 19.1105 151.495 18.6579 151.495 18.1922C151.495 17.7265 151.341 17.2739 151.056 16.9051C150.772 16.5363 150.374 16.2722 149.923 16.1538C149 16.0153 148.062 15.9999 147.092 15.9384V20.4615H147.123Z" fill="#0A0A0A"/>
<path d="M177.954 12.0923V16.8461H171.923V31.7692H165.769V16.8923H159.615V12.0923H177.954Z" fill="#0A0A0A"/>
<path d="M186.908 12.0923V31.7846H180.831V12.0923H186.908Z" fill="#0A0A0A"/>
<path d="M125.415 20.9538C126.323 20.9538 127.107 20.9538 127.892 20.9538C128.146 20.9778 128.384 21.0861 128.569 21.2615C129.108 21.7692 129.615 22.2923 130.108 22.8C130.6 23.3077 130.754 23.2154 131.138 22.8C131.754 22.1692 132.461 21.6308 133.015 20.9538C133.335 20.5464 133.771 20.2457 134.266 20.0918C134.76 19.938 135.29 19.9381 135.784 20.0923C135.755 22.163 135.188 24.1905 134.138 25.9755C133.088 27.7606 131.592 29.2419 129.796 30.2739C128.001 31.3058 125.968 31.8531 123.897 31.8617C121.826 31.8703 119.788 31.3401 117.984 30.3231C116.124 29.3281 114.569 27.8465 113.485 26.0364C112.401 24.2264 111.829 22.1559 111.831 20.0462H113.554L113.031 20.8307H113.923C116.138 20.8307 118.369 20.8307 120.584 20.8307C121.077 20.8307 121.277 20.9538 121.415 21.4769C122 23.9846 122.646 26.4769 123.277 28.9692C123.492 29.8154 123.677 29.8769 124.307 29.2615C124.938 28.6461 125.692 27.8769 126.415 27.2307C126.586 27.0987 126.708 26.9143 126.764 26.7058C126.819 26.4973 126.805 26.2764 126.723 26.0769C126.261 24.3692 125.831 22.6461 125.369 20.8461L125.415 20.9538Z" fill="#0A0A0A"/>
<path d="M113.908 19.9846L120.231 13.9077L123.662 10.6154C124.123 10.1385 124.477 10.1693 124.938 10.6154C126.815 12.4616 126.815 12.4462 126.277 15C125.954 16.5385 125.631 18.077 125.292 19.6154C125.267 19.7215 125.231 19.8246 125.185 19.9231H121.323C121.492 19.1077 121.646 18.3847 121.846 17.3539C121.015 18.1385 120.308 18.8923 119.569 19.4923C119.276 19.7573 118.902 19.9147 118.508 19.9385C117.046 19.9385 115.585 19.9385 113.892 19.9385L113.908 19.9846Z" fill="#0A0A0A"/>
<path d="M127.954 19.9385C128.754 19.0615 129.615 18.0769 130.508 17.1384C130.61 17.0858 130.723 17.0583 130.838 17.0583C130.954 17.0583 131.067 17.0858 131.169 17.1384C132.062 18.0154 132.923 18.9384 133.877 19.9231L127.954 19.9385Z" fill="#0A0A0A"/>
<path d="M123.892 33.8462C121.154 33.8462 118.477 33.0341 116.2 31.5126C113.923 29.9912 112.148 27.8287 111.1 25.2987C110.052 22.7686 109.778 19.9846 110.312 17.2987C110.846 14.6128 112.165 12.1457 114.102 10.2093C116.038 8.27284 118.505 6.95412 121.191 6.41987C123.877 5.88561 126.661 6.1598 129.191 7.20778C131.721 8.25577 133.883 10.0305 135.405 12.3075C136.926 14.5844 137.738 17.2615 137.738 20C137.738 23.6722 136.28 27.194 133.683 29.7907C131.086 32.3874 127.565 33.8462 123.892 33.8462ZM123.892 7.30769C121.382 7.30769 118.928 8.05205 116.841 9.44669C114.754 10.8413 113.127 12.8236 112.166 15.1428C111.205 17.462 110.954 20.014 111.444 22.4761C111.934 24.9382 113.142 27.1997 114.917 28.9748C116.693 30.7498 118.954 31.9587 121.416 32.4484C123.878 32.9381 126.43 32.6868 128.749 31.7261C131.069 30.7655 133.051 29.1387 134.446 27.0514C135.84 24.9642 136.585 22.5103 136.585 20C136.581 16.635 135.242 13.4091 132.863 11.0297C130.483 8.65028 127.257 7.31177 123.892 7.30769Z" fill="#0A0A0A"/>
</svg>
