<svg width="35" height="35" viewBox="0 0 35 35" fill="none" xmlns="http://www.w3.org/2000/svg">
<path fill-rule="evenodd" clip-rule="evenodd" d="M7.77753 32.0508C10.6554 33.9737 14.0388 35.0001 17.5 35.0001C22.1413 35.0001 26.5925 33.1563 29.8744 29.8744C33.1562 26.5925 35 22.1413 35 17.5001C35 14.0389 33.9736 10.6554 32.0507 7.77753C30.1278 4.89967 27.3947 2.65664 24.197 1.33211C20.9993 0.00757417 17.4806 -0.338973 14.0859 0.336268C10.6913 1.01151 7.57306 2.67822 5.12564 5.12564C2.67822 7.57306 1.01151 10.6913 0.336268 14.0859C-0.338973 17.4806 0.00757416 20.9993 1.33211 24.197C2.65664 27.3947 4.89967 30.1278 7.77753 32.0508ZM8.5877 4.16184C11.2257 2.39916 14.3273 1.45838 17.5 1.45838C21.7529 1.46353 25.8302 3.15526 28.8375 6.16254C31.8448 9.16983 33.5365 13.2471 33.5417 17.5001C33.5417 20.6728 32.6008 23.7743 30.8382 26.4123C29.0755 29.0503 26.5701 31.1064 23.6389 32.3206C20.7076 33.5347 17.4822 33.8524 14.3704 33.2335C11.2586 32.6145 8.40031 31.0867 6.15685 28.8432C3.91338 26.5997 2.38551 23.7414 1.76653 20.6296C1.14756 17.5178 1.46526 14.2924 2.67942 11.3611C3.89357 8.42989 5.94966 5.92453 8.5877 4.16184ZM4.94127 17.422L4.88058 17.4803L4.86111 17.422H4.94127ZM10.6944 17.422H4.94127L12.8722 9.79971L17.2084 5.63863C17.7917 5.03586 18.2389 5.07474 18.8222 5.63863L18.8573 5.67317L18.8573 5.67318C20.0249 6.8216 20.6084 7.39544 20.8155 8.08268C21.0223 8.76905 20.8537 9.56854 20.5168 11.1665L20.5139 11.1803L20.5121 11.1889C20.1043 13.1305 19.6966 15.0721 19.2695 17.0137C19.238 17.1477 19.1924 17.2781 19.1333 17.4025H14.2528C14.2908 17.2191 14.3283 17.0395 14.3655 16.8607L14.3655 16.8606C14.5377 16.0344 14.7061 15.2263 14.9139 14.1553C14.5695 14.4806 14.2418 14.8017 13.924 15.1131L13.924 15.1131L13.924 15.1131L13.924 15.1131L13.924 15.1131C13.2729 15.7511 12.6633 16.3485 12.0361 16.8581C11.6659 17.193 11.1927 17.3919 10.6944 17.422ZM22.5559 18.7048H19.4253L19.367 18.5687C19.5089 19.1221 19.6485 19.6699 19.7869 20.2129L19.7869 20.213C20.2175 21.9022 20.6367 23.5466 21.0781 25.1798C21.182 25.4319 21.2002 25.7112 21.1299 25.9746C21.0597 26.2381 20.9049 26.4712 20.6892 26.6381C20.0107 27.2445 19.3107 27.9366 18.6688 28.5712L18.6685 28.5715L18.6669 28.5731C18.4449 28.7926 18.23 29.0051 18.0253 29.2048C17.2281 29.9826 16.9948 29.9048 16.7225 28.8353C16.5709 28.2363 16.4186 27.6372 16.2663 27.0381L16.2662 27.0378L16.2661 27.0375L16.2661 27.0374L16.2661 27.0374C15.6174 24.4861 14.9681 21.9324 14.3698 19.3659C14.1948 18.7048 13.942 18.5492 13.3198 18.5492H4.90028H3.77253L4.43363 17.5576H2.25586C2.25422 20.2241 2.97693 22.8409 4.34682 25.1286C5.7167 27.4163 7.68229 29.289 10.0336 30.5465C12.3137 31.8318 14.8889 32.502 17.5063 32.4911C20.1237 32.4802 22.6932 31.7886 24.9625 30.4843C27.2318 29.18 29.1228 27.3078 30.4497 25.0517C31.7766 22.7955 32.4938 20.2331 32.5309 17.6159C31.9059 17.4211 31.2364 17.4208 30.6113 17.6153C29.9862 17.8098 29.435 18.1898 29.0309 18.7048C28.6022 19.2287 28.1007 19.6869 27.5977 20.1465C27.2792 20.4375 26.9602 20.729 26.6586 21.0381C26.1725 21.5631 25.9781 21.6798 25.3559 21.0381C24.7337 20.3964 24.092 19.7353 23.4114 19.0937C23.1778 18.8719 22.8766 18.735 22.5559 18.7048ZM23.6539 16.2938L23.654 16.2936C24.3647 15.5032 25.1047 14.68 25.8623 13.8832C25.9916 13.8167 26.135 13.782 26.2804 13.782C26.4258 13.782 26.5691 13.8167 26.6984 13.8832C27.4791 14.6505 28.2411 15.4456 29.0361 16.2752L29.0363 16.2754C29.3897 16.6442 29.7496 17.0197 30.1206 17.4027L22.6346 17.4222C22.9664 17.0584 23.3066 16.68 23.6539 16.2938Z" fill="white"/>
</svg>
