<svg width="35" height="35" viewBox="0 0 28 28" fill="none" xmlns="http://www.w3.org/2000/svg">
<path d="M15.369 14.8C16.2767 14.8 17.0614 14.8 17.846 14.8C18.0997 14.8239 18.3381 14.9323 18.5229 15.1077C19.0614 15.6154 19.5691 16.1385 20.0614 16.6462C20.5537 17.1539 20.7075 17.0615 21.0921 16.6462C21.7075 16.0154 22.4152 15.477 22.969 14.8C23.2888 14.3925 23.7249 14.0919 24.2195 13.938C24.7141 13.7842 25.2438 13.7843 25.7383 13.9385C25.709 16.0092 25.1415 18.0367 24.0917 19.8217C23.0418 21.6068 21.5456 23.0881 19.7501 24.1201C17.9546 25.152 15.9216 25.6992 13.8507 25.7079C11.7798 25.7165 9.74228 25.1862 7.93827 24.1693C6.07787 23.1743 4.52267 21.6927 3.43881 19.8826C2.35494 18.0726 1.78312 16.0021 1.78443 13.8924H3.5075L2.98442 14.6769H3.87671C6.0921 14.6769 8.32289 14.6769 10.5383 14.6769C11.0306 14.6769 11.2306 14.8 11.3691 15.3231C11.9537 17.8308 12.5998 20.3231 13.2306 22.8154C13.446 23.6616 13.6306 23.7231 14.2613 23.1077C14.8921 22.4923 15.646 21.7231 16.3691 21.0769C16.5397 20.9449 16.6622 20.7605 16.7178 20.552C16.7734 20.3435 16.7589 20.1226 16.6767 19.9231C16.2152 18.2154 15.7844 16.4923 15.3229 14.6923L15.369 14.8Z" fill="#0A0A0A"/>
<path d="M3.86159 13.8308L10.1846 7.75389L13.6154 4.46161C14.077 3.98468 14.4308 4.01545 14.8923 4.46161C16.7693 6.30776 16.7692 6.29238 16.2308 8.84623C15.9077 10.3847 15.5847 11.9232 15.2462 13.4616C15.2213 13.5677 15.1852 13.6708 15.1385 13.7693H11.2769C11.4462 12.9539 11.6001 12.2308 11.8001 11.2001C10.9693 11.9847 10.2616 12.7385 9.52312 13.3385C9.23023 13.6035 8.85583 13.7609 8.46157 13.7847C7.00004 13.7847 5.5385 13.7847 3.84619 13.7847L3.86159 13.8308Z" fill="#0A0A0A"/>
<path d="M17.9077 13.7846C18.7077 12.9077 19.5692 11.9231 20.4615 10.9846C20.5638 10.932 20.6773 10.9045 20.7923 10.9045C20.9074 10.9045 21.0208 10.932 21.1231 10.9846C22.0154 11.8616 22.8769 12.7846 23.8308 13.7692L17.9077 13.7846Z" fill="#0A0A0A"/>
<path d="M13.8461 27.6923C11.1076 27.6923 8.43064 26.8803 6.15365 25.3588C3.87666 23.8374 2.10196 21.6749 1.05398 19.1448C0.00599274 16.6148 -0.268198 13.8308 0.266058 11.1449C0.800315 8.45903 2.11903 5.99187 4.05545 4.05545C5.99187 2.11903 8.45903 0.800315 11.1449 0.266058C13.8308 -0.268198 16.6148 0.00599274 19.1448 1.05398C21.6749 2.10196 23.8373 3.87666 25.3588 6.15365C26.8802 8.43064 27.6923 11.1077 27.6923 13.8462C27.6923 17.5184 26.2335 21.0402 23.6368 23.6369C21.0402 26.2335 17.5184 27.6923 13.8461 27.6923ZM13.8461 1.15389C11.3358 1.15389 8.8819 1.89824 6.79466 3.29289C4.70742 4.68753 3.08063 6.6698 2.11998 8.98901C1.15933 11.3082 0.907962 13.8602 1.3977 16.3223C1.88743 18.7844 3.0963 21.0459 4.87135 22.821C6.6464 24.596 8.90793 25.8049 11.37 26.2946C13.8321 26.7843 16.3841 26.533 18.7033 25.5723C21.0225 24.6117 23.0048 22.9849 24.3994 20.8976C25.7941 18.8104 26.5385 16.3565 26.5385 13.8462C26.5344 10.4812 25.1959 7.25524 22.8165 4.87586C20.4371 2.49647 17.2111 1.15796 13.8461 1.15389V1.15389Z" fill="#0A0A0A"/>
</svg>
