<svg width="26" height="32" viewBox="0 0 31 37" fill="none" xmlns="http://www.w3.org/2000/svg">
<path d="M23.3554 21.8665C22.9046 21.8665 22.5388 21.5025 22.5388 21.054C22.5388 17.9427 21.3217 15.0188 19.1113 12.8185C18.7923 12.5011 18.7923 11.9866 19.1113 11.6692C19.4303 11.3518 19.9474 11.3518 20.2666 11.6692C22.785 14.1759 24.172 17.5094 24.172 21.054C24.172 21.5025 23.8061 21.8665 23.3554 21.8665V21.8665Z" fill="#0C0B0B"/>
<path d="M1.03632 21.8665C0.58556 21.8665 0.219727 21.5025 0.219727 21.054C0.219727 17.5094 1.6069 14.1759 4.12626 11.6702C4.44525 11.3528 4.9626 11.3528 5.28158 11.6702C5.60056 11.9875 5.60056 12.5023 5.28158 12.8197C3.07023 15.0188 1.85292 17.9426 1.85292 21.054C1.85292 21.5025 1.48708 21.8665 1.03632 21.8665Z" fill="#0C0B0B"/>
<path d="M12.1963 36.2207C9.94464 36.2207 8.11328 34.3985 8.11328 32.1582C8.11328 31.7097 8.47911 31.3457 8.92988 31.3457C9.38064 31.3457 9.74647 31.7097 9.74647 32.1582C9.74647 33.5027 10.845 34.5957 12.1963 34.5957C13.5473 34.5957 14.646 33.5027 14.646 32.1582C14.646 31.7097 15.0119 31.3457 15.4626 31.3457C15.9134 31.3457 16.2792 31.7097 16.2792 32.1582C16.2792 34.3985 14.4479 36.2207 12.1963 36.2207V36.2207Z" fill="#0C0B0B"/>
<path d="M21.1792 32.9707H3.21412C2.16327 32.9707 1.30859 32.1203 1.30859 31.0749C1.30859 30.5201 1.55142 29.9948 1.97507 29.634C3.63099 28.2419 4.57497 26.2184 4.57497 24.0745V21.054C4.57497 16.8725 7.99387 13.4707 12.1967 13.4707C16.3993 13.4707 19.8181 16.8725 19.8181 21.054V24.0745C19.8181 26.2184 20.7621 28.2419 22.4073 29.6265C22.8417 29.9948 23.0845 30.5201 23.0845 31.0749C23.0845 32.1203 22.2299 32.9707 21.1792 32.9707V32.9707ZM12.1967 15.0957C8.8942 15.0957 6.20816 17.7683 6.20816 21.054V24.0745C6.20816 26.697 5.05305 29.1736 3.03987 30.8669C3.00179 30.8994 2.94178 30.9666 2.94178 31.0749C2.94178 31.2221 3.06599 31.3457 3.21412 31.3457H21.1792C21.3271 31.3457 21.4513 31.2221 21.4513 31.0749C21.4513 30.9666 21.3915 30.8994 21.3554 30.869C19.3401 29.1736 18.185 26.697 18.185 24.0745V21.054C18.185 17.7683 15.4989 15.0957 12.1967 15.0957V15.0957Z" fill="#0C0B0B"/>
<path d="M12.1965 15.0957C11.7457 15.0957 11.3799 14.7317 11.3799 14.2832V11.0332C11.3799 10.5847 11.7457 10.2207 12.1965 10.2207C12.6472 10.2207 13.0131 10.5847 13.0131 11.0332V14.2832C13.0131 14.7317 12.6472 15.0957 12.1965 15.0957Z" fill="#0C0B0B"/>
<path d="M30.9996 10.7197C30.9996 15.138 27.3998 18.7197 22.9593 18.7197C18.5187 18.7197 14.9189 15.138 14.9189 10.7197C14.9189 6.30145 18.5187 2.71973 22.9593 2.71973C27.3998 2.71973 30.9996 6.30145 30.9996 10.7197Z" fill="white"/>
<ellipse cx="22.9591" cy="10.7197" rx="7.03528" ry="7" fill="#F45B5B"/>
<path d="M23.5146 7.07227V14.2207H22.6113V8.2002L20.79 8.86426V8.04883L23.373 7.07227H23.5146Z" fill="white"/>
</svg>
