<svg width="6" height="10" viewBox="0 0 6 10" fill="none" xmlns="http://www.w3.org/2000/svg">
<path d="M5.39481 4.49676L1.38564 0.49468C1.31979 0.428289 1.24145 0.375593 1.15513 0.339632C1.06881 0.303671 0.976231 0.285156 0.882723 0.285156C0.789214 0.285156 0.696631 0.303671 0.610314 0.339632C0.523997 0.375593 0.445655 0.428289 0.379806 0.49468C0.247878 0.627395 0.173828 0.806923 0.173828 0.994055C0.173828 1.18119 0.247878 1.36072 0.379806 1.49343L3.88606 5.0351L0.379806 8.54135C0.247878 8.67406 0.173828 8.85359 0.173828 9.04072C0.173828 9.22785 0.247878 9.40738 0.379806 9.5401C0.445408 9.60703 0.52364 9.66027 0.609968 9.69675C0.696297 9.73322 0.789005 9.75221 0.882723 9.7526C0.97644 9.75221 1.06915 9.73322 1.15548 9.69675C1.24181 9.66027 1.32004 9.60703 1.38564 9.5401L5.39481 5.53801C5.46671 5.47168 5.52409 5.39118 5.56333 5.30158C5.60258 5.21197 5.62284 5.11521 5.62284 5.01739C5.62284 4.91957 5.60258 4.8228 5.56333 4.7332C5.52409 4.6436 5.46671 4.56309 5.39481 4.49676Z" fill="#0A0A0A"/>
</svg>
