<svg width="27" height="27" viewBox="0 0 27 27" fill="none" xmlns="http://www.w3.org/2000/svg">
<path d="M14.3159 26.7129H12.6841C11.3643 26.7129 10.2906 25.6392 10.2906 24.3194V23.7674C9.72949 23.5881 9.18435 23.3618 8.66065 23.0908L8.26943 23.482C7.3219 24.4307 5.8041 24.4029 4.8841 23.4817L3.7308 22.3284C2.80918 21.4078 2.78267 19.8905 3.73111 18.9431L4.12202 18.5522C3.851 18.0285 3.62477 17.4834 3.44546 16.9223H2.89347C1.57377 16.9223 0.5 15.8485 0.5 14.5288V12.897C0.5 11.5772 1.57377 10.5035 2.89352 10.5035H3.44552C3.62482 9.94238 3.85105 9.3973 4.12207 8.87359L3.73086 8.48242C2.78297 7.53555 2.80913 6.01811 3.73116 5.09709L4.88455 3.94375C5.80669 3.02034 7.32414 2.99729 8.26984 3.94405L8.6607 4.33491C9.18441 4.06395 9.72954 3.83766 10.2906 3.65836V3.10636C10.2906 1.78661 11.3643 0.712891 12.6841 0.712891H14.3159C15.6357 0.712891 16.7094 1.78661 16.7094 3.10636V3.65841C17.2705 3.83766 17.8156 4.06395 18.3393 4.33496L18.7305 3.94375C19.678 2.99505 21.1958 3.02288 22.1159 3.9441L23.2691 5.09734C24.1908 6.01796 24.2173 7.53525 23.2688 8.48268L22.8779 8.87359C23.1489 9.3973 23.3752 9.94233 23.5545 10.5035H24.1065C25.4262 10.5035 26.5 11.5772 26.5 12.897V14.5288C26.5 15.8485 25.4262 16.9223 24.1065 16.9223H23.5545C23.3752 17.4834 23.1489 18.0285 22.8779 18.5522L23.2691 18.9434C24.217 19.8903 24.1909 21.4077 23.2688 22.3287L22.1154 23.4821C21.1933 24.4055 19.6759 24.4285 18.7302 23.4818L18.3393 23.0909C17.8156 23.3619 17.2705 23.5882 16.7094 23.7675V24.3195C16.7094 25.6392 15.6357 26.7129 14.3159 26.7129ZM8.91532 21.4911C9.64286 21.9213 10.4259 22.2464 11.2427 22.4572C11.579 22.544 11.8141 22.8473 11.8141 23.1947V24.3194C11.8141 24.7991 12.2044 25.1895 12.6841 25.1895H14.3159C14.7956 25.1895 15.186 24.7991 15.186 24.3194V23.1947C15.186 22.8473 15.421 22.544 15.7574 22.4572C16.5741 22.2464 17.3572 21.9213 18.0847 21.4911C18.3841 21.314 18.7652 21.3622 19.0111 21.6081L19.8078 22.4048C20.1513 22.7487 20.7029 22.7407 21.0379 22.4052L22.192 21.2511C22.5263 20.9173 22.5374 20.3656 22.1923 20.0209L21.3953 19.2239C21.1494 18.978 21.1013 18.5969 21.2783 18.2976C21.7085 17.5701 22.0335 16.787 22.2443 15.9702C22.3312 15.6338 22.6345 15.3989 22.9819 15.3989H24.1065C24.5863 15.3989 24.9766 15.0086 24.9766 14.5288V12.897C24.9766 12.4173 24.5863 12.027 24.1065 12.027H22.9819C22.6345 12.027 22.3312 11.792 22.2443 11.4557C22.0335 10.6388 21.7085 9.8558 21.2783 9.12831C21.1013 8.829 21.1494 8.44784 21.3953 8.20196L22.192 7.40525C22.5364 7.06126 22.5274 6.50977 22.1923 6.17507L21.0383 5.02107C20.7038 4.68612 20.1521 4.67632 19.8081 5.02077L19.0112 5.81778C18.7653 6.06371 18.384 6.11185 18.0848 5.93483C17.3572 5.50456 16.5742 5.17951 15.7574 4.96871C15.4211 4.88193 15.186 4.57856 15.186 4.23117V3.10636C15.186 2.62663 14.7957 2.23633 14.316 2.23633H12.6842C12.2045 2.23633 11.8141 2.62663 11.8141 3.10636V4.23107C11.8141 4.57846 11.5791 4.88183 11.2427 4.96861C10.426 5.17941 9.64291 5.50446 8.91537 5.93473C8.61596 6.1117 8.23485 6.06356 7.98897 5.81768L7.19231 5.02097C6.84882 4.67708 6.29719 4.68505 5.96218 5.02061L4.80808 6.17467C4.47384 6.5085 4.46266 7.06014 4.80777 7.40484L5.60479 8.20186C5.85067 8.44774 5.89881 8.8289 5.72184 9.12821C5.29157 9.8557 4.96657 10.6387 4.75577 11.4556C4.66894 11.7919 4.36557 12.0269 4.01823 12.0269H2.89352C2.41379 12.027 2.02344 12.4173 2.02344 12.897V14.5288C2.02344 15.0085 2.41379 15.3988 2.89352 15.3988H4.01818C4.36557 15.3988 4.66889 15.6338 4.75572 15.9702C4.96652 16.787 5.29157 17.57 5.72179 18.2975C5.89876 18.5968 5.85062 18.978 5.60473 19.2239L4.80803 20.0206C4.46363 20.3646 4.47262 20.9161 4.80772 21.2508L5.96173 22.4048C6.29622 22.7397 6.84791 22.7495 7.1919 22.4051L7.98886 21.6081C8.17005 21.4269 8.547 21.2732 8.91532 21.4911Z" fill="white"/>
<path d="M13.5008 19.3697C10.3814 19.3697 7.84375 16.832 7.84375 13.7127C7.84375 10.5934 10.3814 8.05566 13.5008 8.05566C16.6201 8.05566 19.1578 10.5934 19.1578 13.7127C19.1578 16.832 16.6201 19.3697 13.5008 19.3697ZM13.5008 9.5791C11.2215 9.5791 9.36719 11.4334 9.36719 13.7127C9.36719 15.992 11.2215 17.8463 13.5008 17.8463C15.78 17.8463 17.6344 15.992 17.6344 13.7127C17.6344 11.4334 15.7801 9.5791 13.5008 9.5791Z" fill="white"/>
</svg>
