<svg width="12" height="15" viewBox="0 0 12 15" fill="none" xmlns="http://www.w3.org/2000/svg">
<path d="M10.666 4.16683H8.66602V3.50016C8.66602 2.79292 8.38506 2.11464 7.88497 1.61454C7.38487 1.11445 6.70659 0.833496 5.99935 0.833496C5.2921 0.833496 4.61383 1.11445 4.11373 1.61454C3.61363 2.11464 3.33268 2.79292 3.33268 3.50016V4.16683H1.33268C1.15587 4.16683 0.986302 4.23707 0.861278 4.36209C0.736254 4.48712 0.666016 4.65669 0.666016 4.8335V12.1668C0.666016 12.6973 0.876729 13.206 1.2518 13.581C1.62687 13.9561 2.13558 14.1668 2.66602 14.1668H9.33268C9.86311 14.1668 10.3718 13.9561 10.7469 13.581C11.122 13.206 11.3327 12.6973 11.3327 12.1668V4.8335C11.3327 4.65669 11.2624 4.48712 11.1374 4.36209C11.0124 4.23707 10.8428 4.16683 10.666 4.16683ZM4.66602 3.50016C4.66602 3.14654 4.80649 2.8074 5.05654 2.55735C5.30659 2.30731 5.64573 2.16683 5.99935 2.16683C6.35297 2.16683 6.69211 2.30731 6.94216 2.55735C7.19221 2.8074 7.33268 3.14654 7.33268 3.50016V4.16683H4.66602V3.50016ZM9.99935 12.1668C9.99935 12.3436 9.92911 12.5132 9.80409 12.6382C9.67906 12.7633 9.50949 12.8335 9.33268 12.8335H2.66602C2.4892 12.8335 2.31964 12.7633 2.19461 12.6382C2.06959 12.5132 1.99935 12.3436 1.99935 12.1668V5.50016H3.33268V6.16683C3.33268 6.34364 3.40292 6.51321 3.52794 6.63823C3.65297 6.76326 3.82254 6.8335 3.99935 6.8335C4.17616 6.8335 4.34573 6.76326 4.47075 6.63823C4.59578 6.51321 4.66602 6.34364 4.66602 6.16683V5.50016H7.33268V6.16683C7.33268 6.34364 7.40292 6.51321 7.52794 6.63823C7.65297 6.76326 7.82254 6.8335 7.99935 6.8335C8.17616 6.8335 8.34573 6.76326 8.47075 6.63823C8.59578 6.51321 8.66602 6.34364 8.66602 6.16683V5.50016H9.99935V12.1668Z" fill="#9CE85F"/>
</svg>
