<svg width="14" height="14" viewBox="0 0 14 14" fill="none" xmlns="http://www.w3.org/2000/svg">
<path d="M13.667 5.44676C13.6249 5.32482 13.5483 5.21772 13.4465 5.13843C13.3448 5.05915 13.2222 5.01109 13.0936 5.0001L9.30031 4.44676L7.60031 1.0001C7.54572 0.887383 7.46049 0.792325 7.35437 0.725812C7.24825 0.6593 7.12555 0.624023 7.00031 0.624023C6.87507 0.624023 6.75237 0.6593 6.64625 0.725812C6.54014 0.792325 6.4549 0.887383 6.40031 1.0001L4.70031 4.4401L0.906977 5.0001C0.783592 5.01763 0.667593 5.06941 0.572144 5.14954C0.476695 5.22967 0.405617 5.33495 0.366977 5.45343C0.331607 5.56921 0.328433 5.69244 0.357796 5.80989C0.387158 5.92734 0.447949 6.03458 0.533644 6.1201L3.28698 8.78676L2.62031 12.5734C2.59651 12.6984 2.60897 12.8276 2.65622 12.9457C2.70348 13.0639 2.78355 13.166 2.88698 13.2401C2.98779 13.3122 3.10669 13.3547 3.23034 13.363C3.35399 13.3712 3.47749 13.3448 3.58698 13.2868L7.00031 11.5068L10.4003 13.2934C10.4939 13.3462 10.5996 13.3738 10.707 13.3734C10.8482 13.3739 10.9859 13.3296 11.1003 13.2468C11.2037 13.1727 11.2838 13.0705 11.3311 12.9524C11.3783 12.8343 11.3908 12.7051 11.367 12.5801L10.7003 8.79343L13.4536 6.12676C13.5499 6.04522 13.621 5.93803 13.6588 5.81766C13.6966 5.69729 13.6994 5.56868 13.667 5.44676ZM9.56698 8.11343C9.48879 8.18905 9.4303 8.28266 9.3966 8.38608C9.3629 8.4895 9.35502 8.5996 9.37364 8.70676L9.85364 11.5001L7.34698 10.1668C7.25052 10.1154 7.14292 10.0885 7.03364 10.0885C6.92437 10.0885 6.81677 10.1154 6.72031 10.1668L4.21364 11.5001L4.69364 8.70676C4.71227 8.5996 4.70439 8.4895 4.67069 8.38608C4.63699 8.28266 4.5785 8.18905 4.50031 8.11343L2.50031 6.11343L5.30698 5.70676C5.41498 5.69174 5.51764 5.65046 5.60598 5.58653C5.69431 5.52261 5.76562 5.43799 5.81364 5.3401L7.00031 2.8001L8.25364 5.34676C8.30167 5.44466 8.37298 5.52927 8.46131 5.5932C8.54965 5.65712 8.65231 5.69841 8.76031 5.71343L11.567 6.1201L9.56698 8.11343Z" fill="#888888"/>
</svg>
