<svg width="16" height="16" viewBox="0 0 16 16" fill="none" xmlns="http://www.w3.org/2000/svg">
<path d="M0.666016 8.33366V11.667C0.666016 11.8438 0.736253 12.0134 0.861278 12.1384C0.986302 12.2634 1.15587 12.3337 1.33268 12.3337H1.99935C1.99935 12.8641 2.21006 13.3728 2.58514 13.7479C2.96021 14.1229 3.46892 14.3337 3.99935 14.3337C4.52978 14.3337 5.03849 14.1229 5.41356 13.7479C5.78864 13.3728 5.99935 12.8641 5.99935 12.3337H9.99935C9.99935 12.8641 10.2101 13.3728 10.5851 13.7479C10.9602 14.1229 11.4689 14.3337 11.9993 14.3337C12.5298 14.3337 13.0385 14.1229 13.4136 13.7479C13.7886 13.3728 13.9993 12.8641 13.9993 12.3337H14.666C14.8428 12.3337 15.0124 12.2634 15.1374 12.1384C15.2624 12.0134 15.3327 11.8438 15.3327 11.667V3.66699C15.3327 3.13656 15.122 2.62785 14.7469 2.25278C14.3718 1.87771 13.8631 1.66699 13.3327 1.66699H7.33268C6.80225 1.66699 6.29354 1.87771 5.91847 2.25278C5.5434 2.62785 5.33268 3.13656 5.33268 3.66699V5.00033H3.99935C3.68886 5.00033 3.38263 5.07262 3.10492 5.21147C2.82721 5.35033 2.58564 5.55193 2.39935 5.80033L0.799349 7.93366C0.77985 7.96264 0.764165 7.99401 0.752682 8.02699L0.712682 8.10032C0.68326 8.17467 0.667452 8.25371 0.666016 8.33366V8.33366ZM11.3327 12.3337C11.3327 12.2018 11.3718 12.0729 11.445 11.9633C11.5183 11.8536 11.6224 11.7682 11.7442 11.7177C11.866 11.6673 12.0001 11.6541 12.1294 11.6798C12.2587 11.7055 12.3775 11.769 12.4708 11.8623C12.564 11.9555 12.6275 12.0743 12.6532 12.2036C12.6789 12.3329 12.6657 12.467 12.6153 12.5888C12.5648 12.7106 12.4794 12.8147 12.3697 12.888C12.2601 12.9612 12.1312 13.0003 11.9993 13.0003C11.8225 13.0003 11.653 12.9301 11.5279 12.8051C11.4029 12.68 11.3327 12.5105 11.3327 12.3337ZM6.66602 3.66699C6.66602 3.49018 6.73625 3.32061 6.86128 3.19559C6.9863 3.07056 7.15587 3.00033 7.33268 3.00033H13.3327C13.5095 3.00033 13.6791 3.07056 13.8041 3.19559C13.9291 3.32061 13.9993 3.49018 13.9993 3.66699V11.0003H13.4793C13.2919 10.7941 13.0634 10.6293 12.8085 10.5165C12.5537 10.4038 12.278 10.3455 11.9993 10.3455C11.7207 10.3455 11.445 10.4038 11.1902 10.5165C10.9353 10.6293 10.7068 10.7941 10.5193 11.0003H6.66602V3.66699ZM5.33268 7.66699H2.66602L3.46602 6.60032C3.52811 6.51753 3.60864 6.45033 3.70121 6.40404C3.79378 6.35776 3.89585 6.33366 3.99935 6.33366H5.33268V7.66699ZM3.33268 12.3337C3.33268 12.2018 3.37178 12.0729 3.44504 11.9633C3.51829 11.8536 3.62241 11.7682 3.74423 11.7177C3.86604 11.6673 4.00009 11.6541 4.12941 11.6798C4.25873 11.7055 4.37752 11.769 4.47075 11.8623C4.56399 11.9555 4.62748 12.0743 4.65321 12.2036C4.67893 12.3329 4.66573 12.467 4.61527 12.5888C4.56481 12.7106 4.47936 12.8147 4.36973 12.888C4.2601 12.9612 4.1312 13.0003 3.99935 13.0003C3.82254 13.0003 3.65297 12.9301 3.52794 12.8051C3.40292 12.68 3.33268 12.5105 3.33268 12.3337ZM1.99935 9.00033H5.33268V10.8537C4.93924 10.502 4.42277 10.3201 3.89581 10.3476C3.36885 10.3751 2.8741 10.6097 2.51935 11.0003H1.99935V9.00033Z" fill="black"/>
</svg>
