<svg width="64" height="64" viewBox="0 0 64 64" fill="none" xmlns="http://www.w3.org/2000/svg">
<path d="M48.9413 54.9262H15.0609C13.0946 54.924 11.2095 54.142 9.81909 52.7516C8.42872 51.3612 7.64667 49.4761 7.64453 47.5098V45.0034H9.66053V47.5108C9.66213 48.9426 10.2316 50.3153 11.244 51.3277C12.2564 52.3401 13.6291 52.9096 15.0609 52.9112H48.9413C50.3731 52.9096 51.7457 52.3401 52.7581 51.3277C53.7706 50.3153 54.34 48.9426 54.3416 47.5108V45.0034H56.3576V47.5108C56.3552 49.4769 55.5731 51.3618 54.1827 52.752C52.7924 54.1421 50.9074 54.924 48.9413 54.9262Z" fill="white"/>
<path d="M27.681 46.7154H25.665V29.0678H17.3047L31.9968 8.33984L46.699 29.0678H38.3381V40.1286H36.3221V27.0518H42.7985L31.9978 11.8245L21.2046 27.0518H27.681V46.7154Z" fill="white"/>
</svg>
