<svg width="23" height="27" viewBox="0 0 23 27" fill="none" xmlns="http://www.w3.org/2000/svg">
<path d="M11.4995 0.67041C7.71321 0.67041 4.63281 3.75081 4.63281 7.53711C4.63281 11.3234 7.71321 14.4038 11.4995 14.4038C15.2858 14.4038 18.3662 11.3234 18.3662 7.53711C18.3662 3.75081 15.2858 0.67041 11.4995 0.67041ZM11.4995 12.8779C8.55461 12.8779 6.15875 10.482 6.15875 7.53711C6.15875 4.59221 8.55461 2.19634 11.4995 2.19634C14.4444 2.19634 16.8403 4.59221 16.8403 7.53711C16.8403 10.482 14.4444 12.8779 11.4995 12.8779Z" fill="white"/>
<path d="M20.0427 18.8897C18.1627 16.9809 15.6705 15.9297 13.0251 15.9297H9.97325C7.32789 15.9297 4.83564 16.9809 2.95569 18.8897C1.08495 20.7892 0.0546875 23.2965 0.0546875 25.95C0.0546875 26.3713 0.396293 26.7129 0.817654 26.7129H22.1807C22.6021 26.7129 22.9437 26.3713 22.9437 25.95C22.9437 23.2965 21.9134 20.7892 20.0427 18.8897ZM1.61419 25.187C1.99644 20.8592 5.59947 17.4556 9.97325 17.4556H13.0251C17.3989 17.4556 21.0019 20.8592 21.3842 25.187H1.61419Z" fill="white"/>
</svg>
